<?xml version="1.0" encoding="utf-8"?>
<svg viewBox="-36.536 -20.593 600.972 563.772" xmlns="http://www.w3.org/2000/svg" xmlns:bx="https://boxy-svg.com">
  <defs>
    <style bx:fonts="Aleo">@import url(https://fonts.googleapis.com/css2?family=Aleo%3Aital%2Cwght%400%2C300%3B0%2C400%3B0%2C700%3B1%2C300%3B1%2C400%3B1%2C700&amp;display=swap);</style>
  </defs>
  <g transform="matrix(1.155599, 0, 0, 1.089843, 241.071396, -27.909985)" style="">
    <g transform="matrix(1, 0, 0, 1, -237.409195, 11.580953)">
      <g>
        <path d="M256-1C114.347-1,0,114.2,0,255s114.347,256,256,256c140.8,0,256-115.2,256-256S397.653-1,256-1z M256,493.933 c-131.413,0-238.933-107.52-238.933-238.933S124.587,16.067,256,16.067S494.933,123.587,494.933,255S387.413,493.933,256,493.933 z" style="fill: rgb(248, 241, 241);"/>
        <path d="M 382.488 130.166 C 379.075 126.801 373.955 126.801 370.541 130.166 L 305.13 194.642 C 292.002 184.29 275.313 178.111 257.048 178.111 C 238.783 178.111 222.094 184.29 208.966 194.642 L 143.555 130.166 C 140.142 126.801 135.022 126.801 131.608 130.166 C 128.194 133.53 128.195 138.577 131.608 141.942 L 197.019 206.418 C 186.517 219.36 180.248 235.809 180.248 253.814 C 180.248 271.818 186.517 288.268 197.019 301.209 L 131.608 365.685 C 128.195 369.049 128.195 374.096 131.608 377.462 C 133.315 379.144 135.021 379.985 137.581 379.985 C 139.288 379.985 141.848 379.144 143.554 377.462 L 208.965 312.985 C 222.094 323.337 238.783 329.516 257.048 329.516 C 275.313 329.516 292.002 323.337 305.13 312.985 L 370.541 377.462 C 372.248 379.144 373.954 379.985 376.514 379.985 C 378.221 379.985 380.781 379.144 382.487 377.462 C 385.9 374.097 385.9 369.05 382.487 365.685 L 317.076 301.209 C 327.579 288.268 333.848 271.818 333.848 253.814 C 333.848 235.809 327.579 219.36 317.077 206.418 L 382.488 141.942 C 385.901 138.577 385.901 133.53 382.488 130.166 Z M 257.048 312.693 C 223.768 312.693 197.315 286.618 197.315 253.814 C 197.315 221.009 223.768 194.934 257.048 194.934 C 289.475 194.934 316.781 221.009 316.781 253.814 C 316.781 286.618 290.328 312.693 257.048 312.693 Z" style="fill: rgb(248, 241, 241);" transform="matrix(0.374606, -0.983126, 0.874425, 0.374606, -61.137208, 411.454256)" bx:origin="0.500122 0.499872"/>
        <path d="M256,212.333c-23.893,0-42.667,18.773-42.667,42.667c0,23.893,18.773,42.667,42.667,42.667 c23.04,0,42.667-18.773,42.667-42.667C298.667,231.107,279.893,212.333,256,212.333z M256,280.6c-14.507,0-25.6-11.093-25.6-25.6 c0-14.507,11.093-25.6,25.6-25.6c13.653,0,25.6,11.093,25.6,25.6C281.6,269.507,270.507,280.6,256,280.6z" style="fill: rgb(248, 241, 241);"/>
      </g>
    </g>
  </g>
  <text style="fill: rgb(255, 255, 255); font-family: Aleo; font-size: 150px; font-style: italic; font-weight: 700; white-space: pre;" transform="matrix(1.426924, 0, 0, 1.508169, -82.423683, -99.482567)" bx:origin="0.5 0.68727"><tspan x="89.667" y="230.833">L</tspan><tspan x="89.667" dy="1em">​</tspan><tspan x="89.667" dy="1em">​</tspan></text>
  <text style="fill: rgb(255, 255, 255); font-family: Aleo; font-size: 150px; font-style: italic; font-weight: 700; white-space: pre;" transform="matrix(1.049493, 0, 0, 1.49687, 22.627123, -4.869864)" x="325.667" y="300.167">D</text>
</svg>