<?xml version="1.0" encoding="utf-8"?>
<svg viewBox="-107.5 -70.833 768.333 683.333" xmlns="http://www.w3.org/2000/svg" xmlns:bx="https://boxy-svg.com">
  <defs>
    <style bx:fonts="Aleo">@import url(https://fonts.googleapis.com/css2?family=Aleo%3Aital%2Cwght%400%2C300%3B0%2C400%3B0%2C700%3B1%2C300%3B1%2C400%3B1%2C700&amp;display=swap);</style>
  </defs>
  <g transform="matrix(1.155599, 0, 0, 1.089843, -43.999989, -22.24349)" style="">
    <g>
      <g>
        <path d="M256-1C114.347-1,0,114.2,0,255s114.347,256,256,256c140.8,0,256-115.2,256-256S397.653-1,256-1z M256,493.933 c-131.413,0-238.933-107.52-238.933-238.933S124.587,16.067,256,16.067S494.933,123.587,494.933,255S387.413,493.933,256,493.933 z" style="fill: rgb(253, 253, 253);"/>
        <path d="M256,33.133c-122.027,0-221.867,99.84-221.867,221.867S133.973,476.867,256,476.867S477.867,377.027,477.867,255 S378.027,33.133,256,33.133z M256,459.8c-112.64,0-204.8-92.16-204.8-204.8S143.36,50.2,256,50.2S460.8,142.36,460.8,255 S368.64,459.8,256,459.8z" style="fill: rgb(253, 253, 253);"/>
        <path d="M256,212.333c-23.893,0-42.667,18.773-42.667,42.667c0,23.893,18.773,42.667,42.667,42.667 c23.04,0,42.667-18.773,42.667-42.667C298.667,231.107,279.893,212.333,256,212.333z M256,280.6c-14.507,0-25.6-11.093-25.6-25.6 c0-14.507,11.093-25.6,25.6-25.6c13.653,0,25.6,11.093,25.6,25.6C281.6,269.507,270.507,280.6,256,280.6z" style="fill: rgb(253, 253, 253);"/>
        <path d="M381.44,129.56c-3.413-3.413-8.533-3.413-11.947,0l-65.411,65.411C290.954,184.469,274.265,178.2,256,178.2 s-34.954,6.269-48.082,16.771l-65.411-65.411c-3.413-3.413-8.533-3.413-11.947,0s-3.413,8.533,0,11.947l65.411,65.411 C185.469,220.047,179.2,236.735,179.2,255c0,18.265,6.269,34.954,16.771,48.082l-65.411,65.411 c-3.413,3.413-3.413,8.533,0,11.947c1.707,1.707,3.413,2.56,5.973,2.56c1.707,0,4.267-0.853,5.973-2.56l65.411-65.411 C221.046,325.531,237.735,331.8,256,331.8s34.954-6.269,48.082-16.771l65.411,65.411c1.707,1.707,3.413,2.56,5.973,2.56 c1.707,0,4.267-0.853,5.973-2.56c3.413-3.413,3.413-8.533,0-11.947l-65.411-65.411C326.531,289.954,332.8,273.265,332.8,255 c0-18.265-6.269-34.953-16.771-48.082l65.411-65.411C384.853,138.093,384.853,132.973,381.44,129.56z M256,314.733 c-33.28,0-59.733-26.453-59.733-59.733c0-33.28,26.453-59.733,59.733-59.733c32.427,0,59.733,26.453,59.733,59.733 S289.28,314.733,256,314.733z" style="fill: rgb(253, 253, 253);"/>
      </g>
    </g>
  </g>
  <g transform="matrix(1, 0, 0, 1, 345.333344, -6)"/>
  <g transform="matrix(1, 0, 0, 1, 345.333344, -6)"/>
  <g transform="matrix(1, 0, 0, 1, 345.333344, -6)"/>
  <g transform="matrix(1, 0, 0, 1, 345.333344, -6)"/>
  <g transform="matrix(1, 0, 0, 1, 345.333344, -6)"/>
  <g transform="matrix(1, 0, 0, 1, 345.333344, -6)"/>
  <g transform="matrix(1, 0, 0, 1, 345.333344, -6)"/>
  <g transform="matrix(1, 0, 0, 1, 345.333344, -6)"/>
  <g transform="matrix(1, 0, 0, 1, 345.333344, -6)"/>
  <g transform="matrix(1, 0, 0, 1, 345.333344, -6)"/>
  <g transform="matrix(1, 0, 0, 1, 345.333344, -6)"/>
  <g transform="matrix(1, 0, 0, 1, 345.333344, -6)"/>
  <g transform="matrix(1, 0, 0, 1, 345.333344, -6)"/>
  <g transform="matrix(1, 0, 0, 1, 345.333344, -6)"/>
  <g transform="matrix(1, 0, 0, 1, 345.333344, -6)"/>
  <text style="fill: rgb(253, 253, 253); font-family: Aleo; font-size: 150px; font-style: italic; font-weight: 700; white-space: pre;" transform="matrix(1.358383, 0, 0, 1.424618, -95.635117, -8.224656)" bx:origin="0.5 0.68727"><tspan x="89.667" y="230.833">L</tspan><tspan x="89.667" dy="1em">​</tspan><tspan x="89.667" dy="1em">​</tspan></text>
  <text style="fill: rgb(250, 250, 250); font-family: Aleo; font-size: 150px; font-style: italic; font-weight: 700; white-space: pre;" transform="matrix(1, 0, 0, 1.433333, 34.666664, -106.711258)" x="325.667" y="300.167">D</text>
</svg>