<svg xmlns="http://www.w3.org/2000/svg" enable-background="new 0 0 24 24" viewBox="0 0 24 24"><path d="M17.69,21h-2.445c-0.414,0-0.75-0.336-0.75-0.75v-7.286c0-0.222,0-0.525-0.778-0.525c-2.248,0-4.92,1.196-4.946,1.208l-1.706,0.787c-0.234,0.106-0.504,0.086-0.719-0.049C6.13,14.247,6,14.009,6,13.753V3.75C6,3.336,6.336,3,6.75,3h2.444c0.414,0,0.75,0.336,0.75,0.75v5.401c1.023-0.288,2.412-0.58,3.834-0.58c1.771,0,2.859,0.713,3.461,1.311c1.094,1.084,1.29,2.524,1.201,3.146v7.222C18.44,20.664,18.104,21,17.69,21z M15.995,19.5h0.945v-6.536c0-0.08,0.013-0.159,0.037-0.234c0.005-0.115-0.061-1.055-0.795-1.784c-0.402-0.399-1.145-0.875-2.404-0.875c-1.746,0-3.468,0.507-4.338,0.809c-0.229,0.08-0.481,0.044-0.681-0.097c-0.198-0.141-0.315-0.369-0.315-0.611V4.5H7.5v8.082l0.646-0.298c0.126-0.057,2.993-1.344,5.57-1.344c1.68,0,2.278,1.046,2.278,2.025V19.5z"/><path d="M15.917 8h-2.445c-.285 0-.546-.162-.673-.418-.126-.256-.096-.562.078-.789.966-1.259 1.479-1.973 1.691-3.174C14.631 3.261 14.942 3 15.307 3h2.443c.216 0 .422.093.563.255.143.163.208.378.18.592-.206 1.569-.812 2.505-2.008 3.892C16.343 7.905 16.135 8 15.917 8zM14.954 6.5h.617c.638-.758 1.025-1.324 1.248-2h-.913C15.693 5.267 15.363 5.89 14.954 6.5zM6.81 20.999c-.109 0-.219-.024-.321-.072-.262-.124-.429-.388-.429-.678V15.75c0-.29.167-.554.429-.678.262-.123.571-.086.796.097l2.751 2.25c.175.143.275.355.275.581s-.102.438-.275.581L7.284 20.83C7.147 20.941 6.979 20.999 6.81 20.999zM7.56 17.333v1.334L8.376 18 7.56 17.333z"/><path d="M20.25,24h-16c-1.517,0-2.75-1.233-2.75-2.75V2.75C1.5,1.233,2.733,0,4.25,0h16C21.767,0,23,1.233,23,2.75v18.5C23,22.767,21.767,24,20.25,24z M4.25,1.5C3.561,1.5,3,2.061,3,2.75v18.5c0,0.689,0.561,1.25,1.25,1.25h16c0.689,0,1.25-0.561,1.25-1.25V2.75c0-0.689-0.561-1.25-1.25-1.25H4.25z"/></svg>